<svg width="40" height="40" viewBox="0 0 40 40" fill="none" xmlns="http://www.w3.org/2000/svg">
<path fill-rule="evenodd" clip-rule="evenodd" d="M23.3335 9.99999C23.3335 9.07953 24.0797 8.33333 25.0002 8.33333H28.3335C29.254 8.33333 30.0002 9.07953 30.0002 9.99999C30.0002 10.9205 29.254 11.6667 28.3335 11.6667H25.0002C24.0797 11.6667 23.3335 10.9205 23.3335 9.99999Z" fill="url(#paint0_linear_204_953)"/>
<path fill-rule="evenodd" clip-rule="evenodd" d="M19.999 1.66858C22.807 1.66858 25.6603 1.58293 28.4505 1.95788C30.6777 2.25716 32.5212 2.89318 33.9808 4.35208C35.319 5.68965 35.9667 7.3516 36.2957 9.34056C36.6165 11.2809 36.6577 13.6968 36.6645 16.6572C36.665 16.8812 36.6655 17.105 36.6658 17.3288C36.6667 17.7985 36.667 18.0333 36.5205 18.18C36.374 18.3268 36.1387 18.3268 35.668 18.3268C25.2227 18.3268 14.7773 18.3268 4.33198 18.3268C3.86205 18.3268 3.62708 18.3268 3.48078 18.1812L3.4791 18.1795C3.3335 18.0332 3.3335 17.7983 3.3335 17.3283V16.6572C3.3402 13.6968 3.38141 11.2809 3.7023 9.34056C4.0312 7.3516 4.6789 5.68965 6.01715 4.35208C7.47678 2.89318 9.32016 2.25716 11.5473 1.95788C14.3376 1.58293 17.191 1.66858 19.999 1.66858ZM11.9915 5.25981C10.1339 5.50943 9.11123 5.97121 8.37416 6.7079C7.69553 7.3862 7.25225 8.30411 6.991 9.88386C6.80953 10.9813 6.72851 12.3118 6.6929 13.9844C6.6828 14.458 6.67776 14.6949 6.82483 14.845C6.9719 14.9952 7.21061 14.9952 7.68808 14.9952H32.3098C32.7873 14.9952 33.026 14.9952 33.1732 14.845C33.3202 14.6949 33.3152 14.458 33.305 13.9844C33.2693 12.3118 33.1883 10.9813 33.0068 9.88386C32.7457 8.30411 32.3023 7.3862 31.6237 6.7079C30.8867 5.97121 29.864 5.50943 28.0065 5.25981C26.101 5.00376 23.5817 5.00023 19.999 5.00023C16.4163 5.00023 13.897 5.00376 11.9915 5.25981Z" fill="url(#paint1_linear_204_953)"/>
<path fill-rule="evenodd" clip-rule="evenodd" d="M36.6618 15H3.33848L3.33471 16.6623C3.3335 17.1967 3.3335 17.7543 3.3335 18.3322V21.7877C3.33346 25.2172 3.33343 27.9602 3.62295 30.1128C3.92238 32.3392 4.55873 34.182 6.01836 35.641C7.47798 37.1002 9.32138 37.7362 11.5485 38.0355C13.902 38.3518 16.3003 38.3405 18.6785 38.3292C19.1198 38.327 19.5607 38.3248 20.0002 38.3248C20.4397 38.3248 20.8803 38.327 21.3217 38.3292C23.6998 38.3405 26.0983 38.3518 28.4518 38.0355C30.679 37.7362 32.5223 37.1002 33.982 35.641C35.4417 34.182 36.078 32.3392 36.3773 30.1128C36.6668 27.9602 36.6668 25.2172 36.6668 21.7877V18.3322C36.6668 17.7538 36.6668 17.197 36.6657 16.6623L36.6618 15ZM10.0002 23.3333C10.0002 22.4128 10.7464 21.6667 11.6668 21.6667H12.544C13.4645 21.6667 14.2107 22.4128 14.2107 23.3333C14.2107 24.2538 13.4645 25 12.544 25H11.6668C10.7464 25 10.0002 24.2538 10.0002 23.3333ZM17.8948 23.3333C17.8948 22.4128 18.6412 21.6667 19.5615 21.6667H20.4388C21.3592 21.6667 22.1055 22.4128 22.1055 23.3333C22.1055 24.2538 21.3592 25 20.4388 25H19.5615C18.6412 25 17.8948 24.2538 17.8948 23.3333ZM25.7897 23.3333C25.7897 22.4128 26.5358 21.6667 27.4563 21.6667H28.3335C29.254 21.6667 30.0002 22.4128 30.0002 23.3333C30.0002 24.2538 29.254 25 28.3335 25H27.4563C26.5358 25 25.7897 24.2538 25.7897 23.3333ZM11.6668 28.3333C10.7464 28.3333 10.0002 29.0795 10.0002 30C10.0002 30.9205 10.7464 31.6667 11.6668 31.6667H12.544C13.4645 31.6667 14.2107 30.9205 14.2107 30C14.2107 29.0795 13.4645 28.3333 12.544 28.3333H11.6668ZM19.5615 28.3333C18.6412 28.3333 17.8948 29.0795 17.8948 30C17.8948 30.9205 18.6412 31.6667 19.5615 31.6667H20.4388C21.3592 31.6667 22.1055 30.9205 22.1055 30C22.1055 29.0795 21.3592 28.3333 20.4388 28.3333H19.5615ZM27.4563 28.3333C26.5358 28.3333 25.7897 29.0795 25.7897 30C25.7897 30.9205 26.5358 31.6667 27.4563 31.6667H28.3335C29.254 31.6667 30.0002 30.9205 30.0002 30C30.0002 29.0795 29.254 28.3333 28.3335 28.3333H27.4563Z" fill="url(#paint2_linear_204_953)"/>
<defs>
<linearGradient id="paint0_linear_204_953" x1="30.0002" y1="8.33333" x2="27.3335" y2="13.6667" gradientUnits="userSpaceOnUse">
<stop stop-color="#2BA24C"/>
<stop offset="1" stop-color="#103C1C"/>
</linearGradient>
<linearGradient id="paint1_linear_204_953" x1="36.6659" y1="1.66016" x2="23.3324" y2="28.3265" gradientUnits="userSpaceOnUse">
<stop stop-color="#2BA24C"/>
<stop offset="1" stop-color="#103C1C"/>
</linearGradient>
<linearGradient id="paint2_linear_204_953" x1="36.6668" y1="15" x2="14.7428" y2="46.3199" gradientUnits="userSpaceOnUse">
<stop stop-color="#2BA24C"/>
<stop offset="1" stop-color="#103C1C"/>
</linearGradient>
</defs>
</svg>
