<svg width="40" height="40" viewBox="0 0 40 40" fill="none" xmlns="http://www.w3.org/2000/svg">
<path d="M10.0611 2.08331C11.293 2.0833 12.3055 2.08328 13.1247 2.16116C13.9759 2.2421 14.7465 2.41586 15.4474 2.8454C16.1433 3.27181 16.7283 3.85688 17.1548 4.55275C17.5843 5.25366 17.758 6.02425 17.839 6.87546C17.9168 7.69461 17.9168 8.70713 17.9168 9.93903V10.0609C17.9168 11.2928 17.9168 12.3053 17.839 13.1245C17.758 13.9757 17.5843 14.7463 17.1548 15.4472C16.7283 16.1431 16.1433 16.7281 15.4474 17.1546C14.7465 17.5841 13.9759 17.7578 13.1247 17.8388C12.3055 17.9166 11.293 17.9166 10.0611 17.9166H9.93923C8.70733 17.9166 7.6948 17.9166 6.87565 17.8388C6.02443 17.7578 5.25385 17.5841 4.55293 17.1546C3.85706 16.7281 3.272 16.1431 2.84558 15.4472C2.41605 14.7463 2.24228 13.9757 2.16135 13.1245C2.08346 12.3053 2.08348 11.2928 2.0835 10.0609V9.93906C2.08348 8.70716 2.08346 7.69463 2.16135 6.87546C2.24228 6.02425 2.41605 5.25366 2.84558 4.55275C3.272 3.85688 3.85706 3.27181 4.55293 2.8454C5.25385 2.41586 6.02443 2.2421 6.87565 2.16116C7.6948 2.08328 8.70733 2.0833 9.93923 2.08331H10.0611Z" fill="#7A8A98"/>
<path d="M10.0611 22.0833C11.293 22.0833 12.3055 22.0833 13.1247 22.1611C13.9759 22.2421 14.7465 22.4158 15.4474 22.8453C16.1433 23.2718 16.7283 23.8568 17.1548 24.5528C17.5843 25.2536 17.758 26.0243 17.839 26.8755C17.9168 27.6946 17.9168 28.7071 17.9168 29.939V30.061C17.9168 31.2928 17.9168 32.3053 17.839 33.1245C17.758 33.9756 17.5843 34.7463 17.1548 35.4471C16.7283 36.1431 16.1433 36.7281 15.4474 37.1546C14.7465 37.5841 13.9759 37.7578 13.1247 37.8388C12.3055 37.9166 11.293 37.9166 10.0611 37.9166H9.93923C8.70733 37.9166 7.6948 37.9166 6.87565 37.8388C6.02443 37.7578 5.25385 37.5841 4.55293 37.1546C3.85706 36.7281 3.272 36.1431 2.84558 35.4471C2.41605 34.7463 2.24228 33.9756 2.16135 33.1245C2.08346 32.3053 2.08348 31.2928 2.0835 30.061V29.9391C2.08348 28.7073 2.08346 27.6946 2.16135 26.8755C2.24228 26.0243 2.41605 25.2536 2.84558 24.5528C3.272 23.8568 3.85706 23.2718 4.55293 22.8453C5.25385 22.4158 6.02443 22.2421 6.87565 22.1611C7.6948 22.0833 8.70733 22.0833 9.93923 22.0833H10.0611Z" fill="#7A8A98"/>
<path d="M30.0612 2.08331C31.293 2.0833 32.3055 2.08328 33.1247 2.16116C33.9758 2.2421 34.7465 2.41586 35.4473 2.8454C36.1433 3.27181 36.7283 3.85688 37.1548 4.55275C37.5843 5.25366 37.758 6.02425 37.839 6.87546C37.9168 7.69461 37.9168 8.70713 37.9168 9.93903V10.0609C37.9168 11.2928 37.9168 12.3053 37.839 13.1245C37.758 13.9757 37.5843 14.7463 37.1548 15.4472C36.7283 16.1431 36.1433 16.7281 35.4473 17.1546C34.7465 17.5841 33.9758 17.7578 33.1247 17.8388C32.3055 17.9166 31.293 17.9166 30.0612 17.9166H29.9392C28.7073 17.9166 27.6948 17.9166 26.8757 17.8388C26.0245 17.7578 25.2538 17.5841 24.553 17.1546C23.857 16.7281 23.272 16.1431 22.8455 15.4472C22.416 14.7463 22.2423 13.9757 22.1613 13.1245C22.0835 12.3053 22.0835 11.2928 22.0835 10.0609V9.93906C22.0835 8.70716 22.0835 7.69463 22.1613 6.87546C22.2423 6.02425 22.416 5.25366 22.8455 4.55275C23.272 3.85688 23.857 3.27181 24.553 2.8454C25.2538 2.41586 26.0245 2.2421 26.8757 2.16116C27.6948 2.08328 28.7073 2.0833 29.9392 2.08331H30.0612Z" fill="#7A8A98"/>
<path d="M30.0612 22.0833C31.293 22.0833 32.3055 22.0833 33.1247 22.1611C33.9758 22.2421 34.7465 22.4158 35.4473 22.8453C36.1433 23.2718 36.7283 23.8568 37.1548 24.5528C37.5843 25.2536 37.758 26.0243 37.839 26.8755C37.9168 27.6946 37.9168 28.7071 37.9168 29.939V30.061C37.9168 31.2928 37.9168 32.3053 37.839 33.1245C37.758 33.9756 37.5843 34.7463 37.1548 35.4471C36.7283 36.1431 36.1433 36.7281 35.4473 37.1546C34.7465 37.5841 33.9758 37.7578 33.1247 37.8388C32.3055 37.9166 31.293 37.9166 30.0612 37.9166H29.9392C28.7073 37.9166 27.6948 37.9166 26.8757 37.8388C26.0245 37.7578 25.2538 37.5841 24.553 37.1546C23.857 36.7281 23.272 36.1431 22.8455 35.4471C22.416 34.7463 22.2423 33.9756 22.1613 33.1245C22.0835 32.3053 22.0835 31.2928 22.0835 30.061V29.9391C22.0835 28.7073 22.0835 27.6946 22.1613 26.8755C22.2423 26.0243 22.416 25.2536 22.8455 24.5528C23.272 23.8568 23.857 23.2718 24.553 22.8453C25.2538 22.4158 26.0245 22.2421 26.8757 22.1611C27.6948 22.0833 28.7073 22.0833 29.9392 22.0833H30.0612Z" fill="#7A8A98"/>
</svg>
