<svg width="20" height="20" viewBox="0 0 20 20" fill="none" xmlns="http://www.w3.org/2000/svg">
<path fill-rule="evenodd" clip-rule="evenodd" d="M10.8386 17.7083C10.8386 18.1685 10.4654 18.5416 10.0052 18.5416C9.54499 18.5416 9.17191 18.1685 9.17191 17.7083V13.9583H8.67666C8.53032 13.9583 8.35057 13.9585 8.20355 13.9401L8.20077 13.9398C8.09539 13.9266 7.61536 13.8668 7.38672 13.3954C7.15759 12.923 7.4092 12.5063 7.46363 12.4161L7.46567 12.4128C7.54251 12.2853 7.6543 12.1428 7.74625 12.0257L7.76603 12.0005C8.01156 11.6873 8.32987 11.2838 8.64691 10.9579C8.80507 10.7953 8.98616 10.6277 9.17857 10.4953C9.34957 10.3776 9.64141 10.2083 10.0003 10.2083C10.3592 10.2083 10.6511 10.3776 10.8221 10.4953C11.0145 10.6277 11.1956 10.7953 11.3537 10.9579C11.6708 11.2838 11.9891 11.6873 12.2347 12.0005L12.2544 12.0257C12.3463 12.1428 12.4582 12.2852 12.535 12.4128L12.537 12.4161C12.5914 12.5063 12.8431 12.9231 12.6139 13.3954C12.3853 13.8668 11.9052 13.9266 11.7999 13.9398L11.7971 13.9401C11.6501 13.9585 11.4703 13.9583 11.324 13.9583H10.8386V17.7083Z" fill="#7A8A98"/>
<path d="M1.04199 10.4166C1.04199 8.21514 2.52621 6.36092 4.54887 5.79924C4.71219 5.75389 4.79386 5.73121 4.84093 5.683C4.88799 5.63479 4.90858 5.55312 4.94975 5.38978C5.51926 3.13036 7.56425 1.45825 10.0003 1.45825C12.6794 1.45825 14.886 3.48101 15.1763 6.08262C15.1991 6.28708 15.2105 6.38934 15.2626 6.44848C15.3147 6.50764 15.4161 6.53225 15.6189 6.58147C17.5355 7.04649 18.9587 8.77367 18.9587 10.8333C18.9587 13.2495 16.9999 15.2083 14.5837 15.2083H13.6675C13.2853 15.2083 13.0942 15.2083 13.0692 15.1765C13.0569 15.161 13.0537 15.1532 13.0517 15.1335C13.0476 15.0933 13.2102 14.9352 13.5357 14.6188C14.3608 13.8169 14.3795 12.4979 13.5776 11.6728C13.0372 10.9984 12.5266 10.2851 11.8652 9.72184C11.3408 9.27517 10.7025 8.95825 10.0003 8.95825C9.29816 8.95825 8.65983 9.27517 8.1354 9.72184C7.47404 10.2851 6.96345 10.9984 6.42308 11.6728C5.62113 12.4979 5.63987 13.8169 6.46493 14.6188C6.79038 14.9352 6.95311 15.0933 6.94893 15.1335C6.94688 15.1532 6.94371 15.161 6.93148 15.1765C6.90647 15.2083 6.71533 15.2083 6.33318 15.2083H5.83366C3.18729 15.2083 1.04199 13.0629 1.04199 10.4166Z" fill="#7A8A98"/>
</svg>
