<svg width="25" height="16" viewBox="0 0 25 16" fill="none" xmlns="http://www.w3.org/2000/svg">
<path d="M4.66683 1.33341C4.66683 0.965228 4.36835 0.666748 4.00016 0.666748C3.63198 0.666748 3.3335 0.965228 3.3335 1.33341V1.63265C3.58704 1.55222 3.85719 1.4948 4.14372 1.45315C4.30902 1.42913 4.48331 1.40992 4.66683 1.39457V1.33341Z" fill="#7A8A98"/>
<path d="M12.6668 1.63265C12.4133 1.55222 12.1432 1.4948 11.8566 1.45315C11.6913 1.42913 11.517 1.40992 11.3335 1.39457V1.33341C11.3335 0.965228 11.632 0.666748 12.0002 0.666748C12.3684 0.666748 12.6668 0.965228 12.6668 1.33341V1.63265Z" fill="#7A8A98"/>
<path fill-rule="evenodd" clip-rule="evenodd" d="M8.68587 1.33325H7.31413C6.01529 1.33323 4.96761 1.33321 4.14355 1.45299C3.28357 1.57799 2.5712 1.84513 2.01201 2.44965C1.45966 3.04679 1.22186 3.79507 1.10944 4.69903C0.99998 5.57921 0.999987 6.70265 1 8.11585V8.55065C0.999987 9.96385 0.99998 11.0873 1.10944 11.9675C1.22186 12.8715 1.45966 13.6197 2.01201 14.2169C2.5712 14.8214 3.28357 15.0885 4.14355 15.2135C4.96761 15.3333 6.01529 15.3333 7.31413 15.3333H8.68587C9.98473 15.3333 11.0324 15.3333 11.8565 15.2135C12.7165 15.0885 13.4288 14.8214 13.988 14.2169C14.5403 13.6197 14.7781 12.8715 14.8905 11.9675C15 11.0873 15 9.96385 15 8.55065V8.11585C15 6.70265 15 5.57922 14.8905 4.69903C14.7781 3.79507 14.5403 3.04679 13.988 2.44965C13.4288 1.84513 12.7165 1.57799 11.8565 1.45299C11.0324 1.33321 9.98473 1.33323 8.68587 1.33325ZM2.99855 5.99992C2.69281 5.99992 2.53993 5.99992 2.44257 6.09603C2.34521 6.19214 2.34325 6.34307 2.33933 6.64493C2.33351 7.09372 2.33333 7.59605 2.33333 8.16205V8.50445C2.33333 9.97432 2.33455 11.0147 2.43258 11.8029C2.52885 12.577 2.70842 13.0062 2.99081 13.3115C3.26637 13.6094 3.64313 13.7935 4.33533 13.8941C5.05239 13.9983 6.00283 13.9999 7.36667 13.9999H8.63333C9.99713 13.9999 10.9476 13.9983 11.6647 13.8941C12.3569 13.7935 12.7336 13.6094 13.0092 13.3115C13.2916 13.0062 13.4711 12.577 13.5674 11.8029C13.6655 11.0147 13.6667 9.97432 13.6667 8.50445V8.16205C13.6667 7.59605 13.6665 7.09372 13.6607 6.64493C13.6567 6.34307 13.6548 6.19214 13.5575 6.09603C13.4601 5.99992 13.3072 5.99992 13.0015 5.99992H2.99855Z" fill="#7A8A98"/>
<path fill-rule="evenodd" clip-rule="evenodd" d="M4.5 8.66659C4.5 8.20632 4.87309 7.83325 5.33333 7.83325H5.33931C5.79955 7.83325 6.17265 8.20632 6.17265 8.66659C6.17265 9.12685 5.79955 9.49992 5.33931 9.49992H5.33333C4.87309 9.49992 4.5 9.12685 4.5 8.66659ZM7.16367 8.66659C7.16367 8.20632 7.5368 7.83325 7.997 7.83325H8.003C8.4632 7.83325 8.83633 8.20632 8.83633 8.66659C8.83633 9.12685 8.4632 9.49992 8.003 9.49992H7.997C7.5368 9.49992 7.16367 9.12685 7.16367 8.66659ZM9.82733 8.66659C9.82733 8.20632 10.2005 7.83325 10.6607 7.83325H10.6667C11.1269 7.83325 11.5 8.20632 11.5 8.66659C11.5 9.12685 11.1269 9.49992 10.6667 9.49992H10.6607C10.2005 9.49992 9.82733 9.12685 9.82733 8.66659ZM4.5 11.3333C4.5 10.873 4.87309 10.4999 5.33333 10.4999H5.33931C5.79955 10.4999 6.17265 10.873 6.17265 11.3333C6.17265 11.7935 5.79955 12.1666 5.33931 12.1666H5.33333C4.87309 12.1666 4.5 11.7935 4.5 11.3333ZM7.16367 11.3333C7.16367 10.873 7.5368 10.4999 7.997 10.4999H8.003C8.4632 10.4999 8.83633 10.873 8.83633 11.3333C8.83633 11.7935 8.4632 12.1666 8.003 12.1666H7.997C7.5368 12.1666 7.16367 11.7935 7.16367 11.3333Z" fill="#7A8A98"/>
<path d="M23.6 3.792V12H22.496V5.16L20.9 5.856L20.48 4.92L22.892 3.792H23.6Z" fill="#7A8A98"/>
</svg>
