<svg width="25" height="16" viewBox="0 0 25 16" fill="none" xmlns="http://www.w3.org/2000/svg">
<path fill-rule="evenodd" clip-rule="evenodd" d="M8 1.91674C6.8922 1.91674 5.96934 2.75073 5.87735 3.83499L5.77055 5.09362C5.74137 5.4376 5.43378 5.69322 5.08355 5.66455C4.73331 5.63589 4.47305 5.3338 4.50223 4.98981L4.60903 3.73119C4.75599 1.99907 6.23028 0.666748 8 0.666748C9.76973 0.666748 11.244 1.99907 11.391 3.73119L11.4977 4.98981C11.5269 5.3338 11.2667 5.63589 10.9165 5.66455C10.5662 5.69322 10.2587 5.4376 10.2295 5.09362L10.1227 3.83499C10.0307 2.75073 9.1078 1.91674 8 1.91674Z" fill="#7A8A98"/>
<path fill-rule="evenodd" clip-rule="evenodd" d="M9.72144 4.66675H6.27822C5.48787 4.66674 4.84781 4.66673 4.33608 4.73105C3.80291 4.79807 3.34911 4.9408 2.96256 5.26856C2.57669 5.59576 2.35936 6.02127 2.20124 6.53861C2.04908 7.03641 1.93675 7.67361 1.79767 8.46241L1.54161 9.91468C1.34835 11.0106 1.194 11.8859 1.16986 12.5784C1.14497 13.2923 1.25327 13.9046 1.67135 14.4103C2.09048 14.9173 2.66975 15.1344 3.37137 15.2356C4.05003 15.3334 4.92909 15.3334 6.02725 15.3334H9.97244C11.0706 15.3334 11.9496 15.3334 12.6283 15.2356C13.3299 15.1344 13.9092 14.9173 14.3283 14.4103C14.7464 13.9046 14.8547 13.2923 14.8298 12.5784C14.8056 11.8859 14.6513 11.0107 14.458 9.91468L14.202 8.46241C14.0629 7.67361 13.9506 7.03641 13.7984 6.53861C13.6403 6.02127 13.423 5.59576 13.0371 5.26856C12.6506 4.9408 12.1968 4.79807 11.6636 4.73105C11.1518 4.66673 10.5118 4.66674 9.72144 4.66675ZM9.33591 7.10568C9.28564 7.65235 8.75424 8.16675 7.99977 8.16675C7.24537 8.16675 6.71397 7.65235 6.66366 7.10568C6.62992 6.73901 6.30535 6.46915 5.93871 6.50289C5.57207 6.53662 5.3022 6.86122 5.33593 7.22782C5.459 8.56528 6.66671 9.50008 7.99977 9.50008C9.3329 9.50008 10.5406 8.56528 10.6636 7.22782C10.6974 6.86122 10.4275 6.53662 10.0609 6.50289C9.69424 6.46915 9.36964 6.73901 9.33591 7.10568Z" fill="#7A8A98"/>
<path d="M23.6 3.792V12H22.496V5.16L20.9 5.856L20.48 4.92L22.892 3.792H23.6Z" fill="#7A8A98"/>
</svg>
