<svg width="40" height="40" viewBox="0 0 40 40" fill="none" xmlns="http://www.w3.org/2000/svg">
<path fill-rule="evenodd" clip-rule="evenodd" d="M22.8025 2.08331C25.8655 2.0833 28.2915 2.08326 30.1902 2.33855C32.1442 2.60125 33.7258 3.15478 34.9732 4.40205C36.2203 5.64933 36.7738 7.23091 37.0367 9.18495C37.2918 11.0836 37.2918 13.5097 37.2918 16.5725V23.4273C37.2918 26.4901 37.2918 28.9163 37.0367 30.815C36.7738 32.769 36.2203 34.3506 34.9732 35.598C33.7258 36.8451 32.1442 37.3986 30.1902 37.6615C28.2915 37.9166 25.8655 37.9166 22.8027 37.9166H20.1145C17.0517 37.9166 14.6255 37.9166 12.7268 37.6615C10.7728 37.3986 9.19118 36.8451 7.9439 35.598C6.88311 34.5371 6.32413 33.2345 6.01908 31.6666H4.37516C3.4547 31.6666 2.7085 30.9205 2.7085 30C2.7085 29.0795 3.4547 28.3333 4.37516 28.3333H5.68253C5.62513 26.9171 5.62515 25.29 5.62516 23.4273V21.6666H4.37516C3.4547 21.6666 2.7085 20.9205 2.7085 20C2.7085 19.0795 3.4547 18.3333 4.37516 18.3333H5.62516V16.5726C5.62515 14.71 5.62513 13.0828 5.68253 11.6666H4.37516C3.4547 11.6666 2.7085 10.9204 2.7085 9.99998C2.7085 9.07951 3.4547 8.33331 4.37516 8.33331H6.01908C6.32413 6.76543 6.88311 5.46283 7.9439 4.40205C9.19118 3.15478 10.7728 2.60125 12.7268 2.33855C14.6255 2.08326 17.0515 2.0833 20.1145 2.08331H22.8025ZM21.8752 10.4166C19.3438 10.4166 17.2918 12.4687 17.2918 15C17.2918 17.5313 19.3438 19.5833 21.8752 19.5833C24.4065 19.5833 26.4585 17.5313 26.4585 15C26.4585 12.4687 24.4065 10.4166 21.8752 10.4166ZM26.5877 22.5646C23.7092 20.8118 20.0415 20.8118 17.163 22.5646C16.6463 22.8616 15.4696 23.54 14.8517 24.1586C14.4595 24.5513 14.0461 25.1086 13.9706 25.8145C13.8896 26.5723 14.2196 27.2683 14.8226 27.856C15.7345 28.7445 16.9538 29.5833 18.6093 29.5833H25.1413C26.7968 29.5833 28.0162 28.7445 28.928 27.856C29.531 27.2683 29.861 26.5723 29.78 25.8145C29.7047 25.1085 29.2912 24.5513 28.899 24.1586C28.281 23.54 27.1043 22.8616 26.5877 22.5646Z" fill="url(#paint0_linear_204_1078)"/>
<defs>
<linearGradient id="paint0_linear_204_1078" x1="37.2918" y1="2.08331" x2="1.48108" y2="36.6449" gradientUnits="userSpaceOnUse">
<stop stop-color="#F0B501"/>
<stop offset="1" stop-color="#8A6801"/>
</linearGradient>
</defs>
</svg>
