<svg width="40" height="40" viewBox="0 0 40 40" fill="none" xmlns="http://www.w3.org/2000/svg">
<path fill-rule="evenodd" clip-rule="evenodd" d="M30.7177 8.9616C29.0392 8.74997 26.9195 8.74998 24.2532 8.75H15.7472C13.0808 8.74998 10.9611 8.74997 9.28261 8.9616C7.55213 9.17978 6.1295 9.63893 4.94753 10.6736C4.54771 11.0236 4.18228 11.4136 3.85606 11.8377C2.90106 13.0789 2.48126 14.561 2.28026 16.3749C2.21715 16.9443 2.17428 17.5625 2.14515 18.2338C2.13291 18.516 2.35968 18.75 2.64216 18.75H8.3335C9.02385 18.75 9.5835 19.3097 9.5835 20C9.5835 20.6903 9.02385 21.25 8.3335 21.25H2.58411C2.30888 21.25 2.08538 21.4725 2.0847 21.7477C2.0835 22.2285 2.0835 22.7287 2.0835 23.249V23.4107C2.08348 26.2673 2.08346 28.516 2.28026 30.2918C2.48126 32.1057 2.90106 33.5878 3.85606 34.829C4.18228 35.253 4.54771 35.643 4.94753 35.993C6.1295 37.0277 7.55213 37.4868 9.28261 37.7052C10.9611 37.9167 13.0808 37.9167 15.7471 37.9167H24.2532C26.9195 37.9167 29.0392 37.9167 30.7177 37.7052C32.4482 37.4868 33.8708 37.0277 35.0528 35.993C35.4527 35.643 35.818 35.253 36.1443 34.829C37.0993 33.5878 37.519 32.1057 37.72 30.2918C37.9168 28.516 37.9168 26.2673 37.9168 23.4107V23.256C37.9168 22.7332 37.9168 22.2305 37.9157 21.7477C37.915 21.4725 37.6915 21.25 37.4162 21.25H31.6668C30.9765 21.25 30.4168 20.6903 30.4168 20C30.4168 19.3097 30.9765 18.75 31.6668 18.75H37.3582C37.6407 18.75 37.8675 18.516 37.8552 18.2338C37.826 17.5625 37.7832 16.9443 37.72 16.3749C37.519 14.561 37.0993 13.0789 36.1443 11.8377C35.818 11.4136 35.4527 11.0236 35.0528 10.6736C33.8708 9.63893 32.4482 9.17978 30.7177 8.9616ZM21.2502 16.6667C21.2502 15.9763 20.6905 15.4167 20.0002 15.4167C19.3098 15.4167 18.7502 15.9763 18.7502 16.6667V17.2227C18.0598 17.3802 17.424 17.6675 16.8932 18.0655C16.0531 18.6955 15.4168 19.6613 15.4168 20.8333C15.4168 22.0053 16.0531 22.9712 16.8932 23.6012C17.7328 24.2308 18.8353 24.5833 20.0002 24.5833C20.6763 24.5833 21.2403 24.7905 21.6072 25.0655C21.9737 25.3403 22.0835 25.6247 22.0835 25.8333C22.0835 26.042 21.9737 26.3263 21.6072 26.6012C21.2403 26.8762 20.6763 27.0833 20.0002 27.0833C18.8862 27.0833 18.1827 26.5483 17.9872 26.1338C17.693 25.5093 16.9482 25.2417 16.3236 25.536C15.6991 25.8302 15.4315 26.575 15.7258 27.1995C16.2756 28.3662 17.4357 29.1413 18.7502 29.4425V30C18.7502 30.6903 19.3098 31.25 20.0002 31.25C20.6905 31.25 21.2502 30.6903 21.2502 30V29.444C21.9405 29.2865 22.5763 28.9992 23.1072 28.6012C23.9472 27.9712 24.5835 27.0053 24.5835 25.8333C24.5835 24.6613 23.9472 23.6955 23.1072 23.0655C22.2675 22.4358 21.165 22.0833 20.0002 22.0833C19.324 22.0833 18.76 21.8762 18.3932 21.6012C18.0267 21.3263 17.9168 21.042 17.9168 20.8333C17.9168 20.6247 18.0267 20.3403 18.3932 20.0655C18.76 19.7905 19.324 19.5833 20.0002 19.5833C21.1142 19.5833 21.8177 20.1183 22.0132 20.5328C22.3073 21.1573 23.0522 21.425 23.6767 21.1307C24.3012 20.8365 24.5688 20.0917 24.2745 19.4672C23.7247 18.3005 22.5647 17.5253 21.2502 17.2242V16.6667Z" fill="url(#paint0_linear_204_1048)"/>
<path fill-rule="evenodd" clip-rule="evenodd" d="M19.9998 1.66666C21.524 1.66666 22.8348 1.66313 23.8795 1.80358C24.972 1.95046 26.0193 2.2817 26.8687 3.13113C27.7182 3.98058 28.0493 5.02783 28.1963 6.12035C28.3685 7.40196 28.3332 8.71006 28.3332 10C28.3332 10.9205 27.587 11.6667 26.6665 11.6667C25.746 11.6667 24.9998 10.9205 24.9998 10C24.9998 8.38155 24.9963 7.33536 24.8927 6.56451C24.7955 5.84161 24.6385 5.61503 24.5117 5.48816C24.3848 5.36128 24.1582 5.20438 23.4353 5.10718C22.6645 5.00355 21.6183 5 19.9998 5C18.3813 5 17.3352 5.00355 16.5644 5.10718C15.8415 5.20438 15.6149 5.36128 15.488 5.48816C15.3611 5.61503 15.2042 5.84161 15.107 6.56451C15.0034 7.33536 14.9998 8.38155 14.9998 10C14.9998 10.9205 14.2537 11.6667 13.3332 11.6667C12.4127 11.6667 11.6665 10.9205 11.6665 10C11.6665 8.47578 11.663 7.16493 11.8034 6.12035C11.9503 5.02783 12.2815 3.98058 13.131 3.13113C13.9804 2.2817 15.0277 1.95046 16.1202 1.80358C17.1648 1.66313 18.4757 1.66666 19.9998 1.66666Z" fill="url(#paint1_linear_204_1048)"/>
<defs>
<linearGradient id="paint0_linear_204_1048" x1="37.9168" y1="8.75" x2="9.35741" y2="43.8373" gradientUnits="userSpaceOnUse">
<stop stop-color="#2BA24C"/>
<stop offset="1" stop-color="#103C1C"/>
</linearGradient>
<linearGradient id="paint1_linear_204_1048" x1="28.3362" y1="1.66666" x2="19.5134" y2="16.3739" gradientUnits="userSpaceOnUse">
<stop stop-color="#2BA24C"/>
<stop offset="1" stop-color="#103C1C"/>
</linearGradient>
</defs>
</svg>
