<svg width="40" height="40" viewBox="0 0 40 40" fill="none" xmlns="http://www.w3.org/2000/svg">
<path fill-rule="evenodd" clip-rule="evenodd" d="M28.3333 2.08331C23.0938 2.08331 18.75 6.16098 18.75 11.3056C18.75 13.7697 19.755 16.0012 21.375 17.6463C21.4175 17.8131 21.3663 18.342 20.8227 19.1223C20.5445 19.4645 20.4672 19.928 20.6193 20.342C20.7713 20.7558 21.1305 21.0591 21.564 21.1396C23.0485 21.4158 24.892 21.0048 26.2075 20.3053C26.8148 20.4193 27.7147 20.5285 28.3333 20.5278C33.5728 20.5278 37.9167 16.4502 37.9167 11.3056C37.9167 6.16098 33.5728 2.08331 28.3333 2.08331ZM25.8203 10.4166C25.13 10.4166 24.5703 10.9763 24.5703 11.6666C24.5703 12.357 25.13 12.9166 25.8203 12.9166H25.8338C26.5242 12.9166 27.0838 12.357 27.0838 11.6666C27.0838 10.9763 26.5242 10.4166 25.8338 10.4166H25.8203ZM30.8203 10.4166C30.13 10.4166 29.5703 10.9763 29.5703 11.6666C29.5703 12.357 30.13 12.9166 30.8203 12.9166H30.8338C31.5242 12.9166 32.0838 12.357 32.0838 11.6666C32.0838 10.9763 31.5242 10.4166 30.8338 10.4166H30.8203Z" fill="url(#paint0_linear_204_1062)"/>
<path d="M6.66748 20.4166C6.66748 17.195 9.27915 14.5833 12.5008 14.5833C15.7225 14.5833 18.3342 17.195 18.3342 20.4166C18.3342 23.6383 15.7225 26.25 12.5008 26.25C9.27915 26.25 6.66748 23.6383 6.66748 20.4166Z" fill="url(#paint1_linear_204_1062)"/>
<path d="M6.377 29.4593C10.1303 27.4022 14.8709 27.4022 18.6242 29.4593C19.3432 29.8318 20.9162 30.6498 21.7225 31.3763C22.2197 31.8243 22.7935 32.4988 22.9002 33.3975C23.0182 34.391 22.5297 35.2457 21.7655 35.9157C20.5185 37.0092 18.984 37.9165 16.9913 37.9165H8.00983C6.01728 37.9165 4.4828 37.0092 3.23565 35.9157C2.47161 35.2457 1.98303 34.391 2.10103 33.3975C2.20775 32.4988 2.78163 31.8243 3.2788 31.3763C4.08513 30.6498 5.65801 29.8318 6.377 29.4593Z" fill="url(#paint2_linear_204_1062)"/>
<defs>
<linearGradient id="paint0_linear_204_1062" x1="37.9167" y1="2.08331" x2="18.7736" y2="21.25" gradientUnits="userSpaceOnUse">
<stop stop-color="#3B7DED"/>
<stop offset="1" stop-color="#224787"/>
</linearGradient>
<linearGradient id="paint1_linear_204_1062" x1="18.3342" y1="14.5833" x2="6.66753" y2="26.25" gradientUnits="userSpaceOnUse">
<stop stop-color="#3B7DED"/>
<stop offset="1" stop-color="#224787"/>
</linearGradient>
<linearGradient id="paint2_linear_204_1062" x1="22.9177" y1="27.9164" x2="15.1155" y2="44.1716" gradientUnits="userSpaceOnUse">
<stop stop-color="#3B7DED"/>
<stop offset="1" stop-color="#224787"/>
</linearGradient>
</defs>
</svg>
