<svg width="40" height="40" viewBox="0 0 40 40" fill="none" xmlns="http://www.w3.org/2000/svg">
<path d="M12.9165 12.5C12.9165 8.58797 16.0878 5.41666 19.9998 5.41666C23.9118 5.41666 27.0832 8.58797 27.0832 12.5C27.0832 16.412 23.9118 19.5833 19.9998 19.5833C16.0878 19.5833 12.9165 16.412 12.9165 12.5Z" fill="url(#paint0_linear_204_1041)"/>
<path d="M7.0835 33.3333C7.0835 26.9463 13.0542 22.0833 20.0002 22.0833C26.9462 22.0833 32.9168 26.9463 32.9168 33.3333V34.5833H7.0835V33.3333Z" fill="url(#paint1_linear_204_1041)"/>
<path d="M12.0519 7.93014C11.2768 9.27539 10.8334 10.8359 10.8334 12.5C10.8334 14.8202 11.6954 16.939 13.1166 18.5538C12.6551 18.6817 12.1689 18.75 11.6667 18.75C8.67522 18.75 6.25 16.3249 6.25 13.3333C6.25 10.3418 8.67522 7.91666 11.6667 7.91666C11.7962 7.91666 11.9247 7.92121 12.0519 7.93014Z" fill="url(#paint2_linear_204_1041)"/>
<path d="M14.6435 20.888C9.85248 22.5213 6.02303 26.2938 5.17545 31.25H2.0835V30C2.0835 24.7073 6.3741 20.4167 11.6668 20.4167C12.706 20.4167 13.7065 20.582 14.6435 20.888Z" fill="url(#paint3_linear_204_1041)"/>
<path d="M34.8244 31.25H37.9164V30C37.9164 24.7073 33.6258 20.4167 28.3331 20.4167C27.2939 20.4167 26.2934 20.582 25.3564 20.888C30.1474 22.5213 33.9768 26.2938 34.8244 31.25Z" fill="url(#paint4_linear_204_1041)"/>
<path d="M26.8833 18.5538C27.3448 18.6817 27.8311 18.75 28.3333 18.75C31.3248 18.75 33.75 16.3249 33.75 13.3333C33.75 10.3418 31.3248 7.91666 28.3333 7.91666C28.2038 7.91666 28.0753 7.92121 27.948 7.93014C28.7231 9.27539 29.1666 10.8359 29.1666 12.5C29.1666 14.8202 28.3046 16.939 26.8833 18.5538Z" fill="url(#paint5_linear_204_1041)"/>
<defs>
<linearGradient id="paint0_linear_204_1041" x1="27.0832" y1="5.41666" x2="12.9165" y2="19.5833" gradientUnits="userSpaceOnUse">
<stop stop-color="#593BED"/>
<stop offset="1" stop-color="#332287"/>
</linearGradient>
<linearGradient id="paint1_linear_204_1041" x1="32.9168" y1="22.0833" x2="23.115" y2="42.3405" gradientUnits="userSpaceOnUse">
<stop stop-color="#593BED"/>
<stop offset="1" stop-color="#332287"/>
</linearGradient>
<linearGradient id="paint2_linear_204_1041" x1="13.1166" y1="7.91666" x2="3.31944" y2="14.1265" gradientUnits="userSpaceOnUse">
<stop stop-color="#593BED"/>
<stop offset="1" stop-color="#332287"/>
</linearGradient>
<linearGradient id="paint3_linear_204_1041" x1="14.6435" y1="20.4167" x2="3.92756" y2="32.8405" gradientUnits="userSpaceOnUse">
<stop stop-color="#593BED"/>
<stop offset="1" stop-color="#332287"/>
</linearGradient>
<linearGradient id="paint4_linear_204_1041" x1="37.9164" y1="20.4167" x2="27.2005" y2="32.8405" gradientUnits="userSpaceOnUse">
<stop stop-color="#593BED"/>
<stop offset="1" stop-color="#332287"/>
</linearGradient>
<linearGradient id="paint5_linear_204_1041" x1="33.75" y1="7.91666" x2="23.9528" y2="14.1266" gradientUnits="userSpaceOnUse">
<stop stop-color="#593BED"/>
<stop offset="1" stop-color="#332287"/>
</linearGradient>
</defs>
</svg>
