<svg width="40" height="40" viewBox="0 0 40 40" fill="none" xmlns="http://www.w3.org/2000/svg">
<path fill-rule="evenodd" clip-rule="evenodd" d="M5.00016 15.4167C5.92065 15.4167 6.66683 16.1629 6.66683 17.0833V25.4167C6.66683 27.8208 6.67038 29.4562 6.83503 30.681C6.99325 31.8577 7.2722 32.4027 7.64315 32.7737C8.0141 33.1447 8.55913 33.4237 9.73588 33.5818C10.9606 33.7465 12.596 33.75 15.0002 33.75H25.0002C27.4043 33.75 29.0398 33.7465 30.2645 33.5818C31.4412 33.4237 31.9862 33.1447 32.3572 32.7737C32.7282 32.4027 33.0072 31.8577 33.1653 30.681C33.33 29.4562 33.3335 27.8208 33.3335 25.4167V17.0833C33.3335 16.1629 34.0797 15.4167 35.0002 15.4167C35.9207 15.4167 36.6668 16.1629 36.6668 17.0833V25.5342C36.6668 27.7912 36.667 29.6522 36.469 31.1252C36.261 32.6715 35.8077 34.0372 34.7142 35.1307C33.6207 36.2242 32.255 36.6775 30.7087 36.8853C29.2357 37.0835 27.3747 37.0833 25.1178 37.0833H14.8825C12.6257 37.0833 10.7647 37.0835 9.29173 36.8853C7.74535 36.6775 6.37963 36.2242 5.28613 35.1307C4.19261 34.0372 3.73933 32.6715 3.53141 31.1252C3.3334 29.6522 3.33345 27.7912 3.3335 25.5343V17.0833C3.3335 16.1629 4.0797 15.4167 5.00016 15.4167Z" fill="url(#paint0_linear_204_1013)"/>
<path d="M29.11 2.91666C30.1692 2.91662 31.0715 2.91657 31.8105 3.00396C32.6007 3.09737 33.3292 3.30182 33.9887 3.79414C34.6447 4.28372 35.0548 4.92576 35.3843 5.65922C35.6955 6.35166 35.979 7.23252 36.3152 8.27729L37.4757 11.8826L37.5005 11.9601C37.794 12.8704 38.0293 13.6003 37.857 14.7039C37.7857 15.1612 37.6945 15.5365 37.54 15.8841C37.3947 16.211 37.2135 16.4615 37.0745 16.6534L37.054 16.682C35.4137 18.953 32.4062 20.4167 29.5907 20.4167C27.7912 20.4167 26.1288 19.8222 24.7945 18.8205C23.46 19.8228 21.7983 20.4167 19.9983 20.4167C18.1993 20.4167 16.5375 19.8225 15.2034 18.8213C13.8689 19.8232 12.2078 20.4167 10.4083 20.4167C7.59287 20.4167 4.5853 18.953 2.94503 16.682L2.92442 16.6534C2.78555 16.4615 2.60435 16.211 2.459 15.8841C2.30448 15.5365 2.21332 15.1612 2.14193 14.7038C1.96972 13.6003 2.20497 12.8704 2.49842 11.96L2.52338 11.8826L3.66292 8.34216L3.6838 8.27732C4.02003 7.23254 4.30353 6.35166 4.61458 5.65922C4.94407 4.92576 5.35433 4.28372 6.01023 3.79414C6.66978 3.30182 7.39837 3.09737 8.18848 3.00396C8.92748 2.91657 9.82977 2.91662 10.8889 2.91666H29.11Z" fill="url(#paint1_linear_204_1013)"/>
<path fill-rule="evenodd" clip-rule="evenodd" d="M10 29.1667C10 28.2462 10.7462 27.5 11.6667 27.5H18.3333C19.2538 27.5 20 28.2462 20 29.1667C20 30.0872 19.2538 30.8333 18.3333 30.8333H11.6667C10.7462 30.8333 10 30.0872 10 29.1667Z" fill="url(#paint2_linear_204_1013)"/>
<defs>
<linearGradient id="paint0_linear_204_1013" x1="36.6668" y1="15.4167" x2="16.866" y2="45.8795" gradientUnits="userSpaceOnUse">
<stop stop-color="#E43E2B"/>
<stop offset="1" stop-color="#7E2218"/>
</linearGradient>
<linearGradient id="paint1_linear_204_1013" x1="37.9155" y1="2.91666" x2="24.1139" y2="31.1761" gradientUnits="userSpaceOnUse">
<stop stop-color="#E43E2B"/>
<stop offset="1" stop-color="#7E2218"/>
</linearGradient>
<linearGradient id="paint2_linear_204_1013" x1="20" y1="27.5" x2="18" y2="33.5" gradientUnits="userSpaceOnUse">
<stop stop-color="#E43E2B"/>
<stop offset="1" stop-color="#7E2218"/>
</linearGradient>
</defs>
</svg>
