<svg width="40" height="40" viewBox="0 0 40 40" fill="none" xmlns="http://www.w3.org/2000/svg">
<path d="M11.6667 25.2083C9.36548 25.2083 7.5 27.0738 7.5 29.375C7.5 31.6761 9.36548 33.5416 11.6667 33.5416C13.9678 33.5416 15.8333 31.6761 15.8333 29.375C15.8333 27.0738 13.9678 25.2083 11.6667 25.2083Z" fill="url(#paint0_linear_204_1151)"/>
<path d="M28.3332 25.2083C26.032 25.2083 24.1665 27.0738 24.1665 29.375C24.1665 31.6761 26.032 33.5416 28.3332 33.5416C30.6343 33.5416 32.4998 31.6761 32.4998 29.375C32.4998 27.0738 30.6343 25.2083 28.3332 25.2083Z" fill="url(#paint1_linear_204_1151)"/>
<path fill-rule="evenodd" clip-rule="evenodd" d="M24.6645 6.54941C25.5878 6.64683 26.43 6.85701 27.2397 7.34546C28.0395 7.82796 28.6435 8.4832 29.2108 9.2657C29.7533 10.0139 30.3663 11.038 31.0637 12.2026C31.9918 13.753 33.0955 14.944 34.4037 15.9C35.7288 16.8668 36.7972 17.6463 37.3848 18.923C37.685 19.5753 37.8073 20.2375 37.8637 20.9406C37.8993 21.386 37.9112 21.8911 37.915 22.458C37.9172 22.7715 37.9182 22.9281 37.8203 23.0265C37.7227 23.125 37.565 23.125 37.25 23.125H36.2502C35.5598 23.125 35.0002 23.6846 35.0002 24.375C35.0002 25.0653 35.5598 25.625 36.2502 25.625H37.1962C37.5257 25.625 37.6905 25.625 37.7895 25.7325C37.8885 25.8401 37.8753 25.9991 37.849 26.3173C37.8407 26.4186 37.8313 26.5161 37.8207 26.6093C37.719 27.5026 37.4898 28.3978 36.8583 29.159C36.484 29.566 36.0242 29.8948 35.5405 30.13C35.2985 30.2476 35.1775 30.3066 35.0392 30.2943C34.887 30.2808 34.7337 30.1848 34.655 30.0538C34.5835 29.935 34.5835 29.7483 34.5835 29.375C34.5835 25.9231 31.7853 23.125 28.3335 23.125C24.8817 23.125 22.0835 25.9231 22.0835 29.375L22.0837 29.41C22.087 30.0235 22.0887 30.3301 21.942 30.4776C21.7953 30.625 21.5253 30.625 20.9852 30.625H19.0152C18.475 30.625 18.205 30.625 18.0583 30.4776C17.9117 30.3301 17.9133 30.0235 17.9167 29.41L17.9168 29.375C17.9168 25.9231 15.1186 23.125 11.6668 23.125C8.21505 23.125 5.41683 25.9231 5.41683 29.375C5.41683 29.5975 5.41683 29.7086 5.39186 29.7846C5.31485 30.0191 5.05601 30.1686 4.81436 30.118C4.73606 30.1016 4.6725 30.065 4.54535 29.9915C4.23663 29.8133 3.91865 29.601 3.5645 29.3646L3.46063 29.2953C3.13296 29.077 2.71298 28.7791 2.43115 28.3071C2.1324 27.807 2.0835 27.2805 2.0835 26.8163V19.375C2.0835 18.6846 2.64315 18.125 3.3335 18.125H18.0835C18.3978 18.125 18.5548 18.125 18.6525 18.0273C18.7502 17.9296 18.7502 17.7726 18.7502 17.4583V8.06945C18.7502 7.64215 18.9185 7.23236 19.218 6.93021C19.5175 6.62808 19.9238 6.45833 20.3473 6.45833L21.5423 6.45831C22.7633 6.4583 23.8005 6.45826 24.6645 6.54941ZM22.1052 9.8761C22.1612 9.75723 22.194 9.74411 22.2597 9.71788C22.3175 9.69478 22.3805 9.68225 22.4467 9.68261C23.2438 9.68703 23.8392 9.70228 24.3335 9.75441C24.9712 9.82168 25.319 9.94086 25.6013 10.1112C25.8935 10.2874 26.1997 10.5696 26.6335 11.168C27.0828 11.7877 27.5877 12.6281 28.3303 13.8686C29.0083 15.0011 29.7218 15.9663 30.5612 16.8295C31.1372 17.4218 31.4252 17.7178 31.3392 17.9215C31.2532 18.1251 30.8573 18.1251 30.0658 18.1251H28.829C27.5653 18.1251 26.7425 18.1225 26.1125 18.0363C25.5315 17.957 25.2342 17.82 24.9932 17.6168C24.7308 17.3958 24.4738 17.0428 24.161 16.3128C23.8422 15.5688 23.5195 14.5694 23.0555 13.1256L22.1188 10.2117C22.0725 10.0672 22.0492 9.99496 22.1052 9.8761Z" fill="url(#paint2_linear_204_1151)"/>
<defs>
<linearGradient id="paint0_linear_204_1151" x1="15.8333" y1="25.2083" x2="7.5" y2="33.5416" gradientUnits="userSpaceOnUse">
<stop stop-color="#2BA24C"/>
<stop offset="1" stop-color="#103C1C"/>
</linearGradient>
<linearGradient id="paint1_linear_204_1151" x1="32.4998" y1="25.2083" x2="24.1665" y2="33.5416" gradientUnits="userSpaceOnUse">
<stop stop-color="#2BA24C"/>
<stop offset="1" stop-color="#103C1C"/>
</linearGradient>
<linearGradient id="paint2_linear_204_1151" x1="37.9156" y1="6.45831" x2="15.5095" y2="39.68" gradientUnits="userSpaceOnUse">
<stop stop-color="#2BA24C"/>
<stop offset="1" stop-color="#103C1C"/>
</linearGradient>
</defs>
</svg>
