<svg width="40" height="40" viewBox="0 0 40 40" fill="none" xmlns="http://www.w3.org/2000/svg">
<path d="M13.2588 2.08332L21.6667 2.08334C22.357 2.08334 22.9167 2.64297 22.9167 3.33334C22.9167 4.02369 22.357 4.58334 21.6667 4.58334H13.3334C12.5123 4.58334 12.0223 4.58599 11.6711 4.6332C11.4068 4.65722 11.3135 4.8907 11.2999 5.00444C11.2527 5.35564 11.25 5.84565 11.25 6.66667C11.25 7.35702 10.6904 7.91667 10 7.91667C9.30966 7.91667 8.75002 7.35702 8.75002 6.66667L8.75001 6.59209C8.74992 5.87072 8.74986 5.20934 8.82219 4.67132C8.90184 4.07885 9.08926 3.45264 9.60429 2.9376C10.1193 2.42257 10.7455 2.23515 11.338 2.1555C11.876 2.08317 12.5374 2.08324 13.2588 2.08332Z" fill="url(#paint0_linear_204_1144)"/>
<path fill-rule="evenodd" clip-rule="evenodd" d="M25.4165 3.33331C25.4165 2.64296 25.9762 2.08331 26.6665 2.08331H28.3332C29.0235 2.08331 29.5832 2.64296 29.5832 3.33331C29.5832 4.02366 29.0235 4.58331 28.3332 4.58331H26.6665C25.9762 4.58331 25.4165 4.02366 25.4165 3.33331Z" fill="url(#paint1_linear_204_1144)"/>
<path fill-rule="evenodd" clip-rule="evenodd" d="M17.0835 8.33331C17.0835 7.64296 17.6432 7.08331 18.3335 7.08331H28.3335C29.0238 7.08331 29.5835 7.64296 29.5835 8.33331C29.5835 9.02366 29.0238 9.58331 28.3335 9.58331H18.3335C17.6432 9.58331 17.0835 9.02366 17.0835 8.33331Z" fill="url(#paint2_linear_204_1144)"/>
<path d="M18.75 37.9167H28.42C29.9175 37.9167 31.1662 37.9167 32.1575 37.7835C33.2038 37.6429 34.1485 37.3334 34.9075 36.5742C35.6667 35.815 35.9762 34.8704 36.1168 33.824C36.2502 32.8329 36.25 31.5842 36.25 30.0867V22.7984C36.2502 21.6714 36.2502 20.687 36.1377 19.9294C36.0192 19.132 35.7313 18.25 34.8667 17.7157C34.0022 17.1814 33.0845 17.3182 32.3183 17.5689C31.5902 17.8072 30.71 18.2474 29.702 18.7514L26.2147 20.4952C26.2028 20.3097 26.187 20.1347 26.166 19.971C26.0787 19.29 25.8712 18.523 25.2167 17.9697C24.996 17.783 24.7487 17.6302 24.483 17.5162C23.6953 17.1784 22.9165 17.3357 22.2683 17.5622C21.6445 17.78 20.8963 18.1542 20.0407 18.5822L18.75 19.2274V37.9167Z" fill="url(#paint3_linear_204_1144)"/>
<path d="M11.7413 10.4167H8.25877C7.53741 10.4166 6.87602 10.4165 6.33801 10.4889C5.74554 10.5685 5.11932 10.7559 4.60429 11.271C4.08926 11.786 3.90184 12.4122 3.82219 13.0047C3.74986 13.5427 3.74992 14.2041 3.75001 14.9255V15.4167H16.25V14.9255C16.2501 14.2041 16.2502 13.5427 16.1779 13.0047C16.0982 12.4122 15.9108 11.786 15.3957 11.271C14.8807 10.7559 14.2545 10.5685 13.662 10.4889C13.124 10.4165 12.4626 10.4166 11.7413 10.4167Z" fill="url(#paint4_linear_204_1144)"/>
<path d="M16.25 17.9167H3.75L3.75002 30.0867C3.74997 31.5842 3.74992 32.8329 3.8832 33.8242C4.02387 34.8705 4.33332 35.8152 5.09243 36.5744C5.85155 37.3334 6.79622 37.6429 7.84255 37.7835C8.83385 37.9169 10.0826 37.9167 11.58 37.9167H15C15.6904 37.9167 16.25 37.357 16.25 36.6667V17.9167Z" fill="url(#paint5_linear_204_1144)"/>
<defs>
<linearGradient id="paint0_linear_204_1144" x1="22.9167" y1="2.08331" x2="18.8092" y2="12.0587" gradientUnits="userSpaceOnUse">
<stop stop-color="#593BED"/>
<stop offset="1" stop-color="#332287"/>
</linearGradient>
<linearGradient id="paint1_linear_204_1144" x1="29.5832" y1="2.08331" x2="27.3773" y2="5.75978" gradientUnits="userSpaceOnUse">
<stop stop-color="#593BED"/>
<stop offset="1" stop-color="#332287"/>
</linearGradient>
<linearGradient id="paint2_linear_204_1144" x1="29.5835" y1="7.08331" x2="28.622" y2="11.891" gradientUnits="userSpaceOnUse">
<stop stop-color="#593BED"/>
<stop offset="1" stop-color="#332287"/>
</linearGradient>
<linearGradient id="paint3_linear_204_1144" x1="36.25" y1="17.321" x2="15.9245" y2="34.5914" gradientUnits="userSpaceOnUse">
<stop stop-color="#593BED"/>
<stop offset="1" stop-color="#332287"/>
</linearGradient>
<linearGradient id="paint4_linear_204_1144" x1="16.25" y1="10.4167" x2="12.8018" y2="19.0374" gradientUnits="userSpaceOnUse">
<stop stop-color="#593BED"/>
<stop offset="1" stop-color="#332287"/>
</linearGradient>
<linearGradient id="paint5_linear_204_1144" x1="16.25" y1="17.9167" x2="-1.72752" y2="29.1527" gradientUnits="userSpaceOnUse">
<stop stop-color="#593BED"/>
<stop offset="1" stop-color="#332287"/>
</linearGradient>
</defs>
</svg>
