<svg width="136" height="16" viewBox="0 0 136 16" fill="none" xmlns="http://www.w3.org/2000/svg">
<path d="M4.66683 1.33341C4.66683 0.965228 4.36835 0.666748 4.00016 0.666748C3.63198 0.666748 3.3335 0.965228 3.3335 1.33341V1.63265C3.58704 1.55222 3.85719 1.4948 4.14372 1.45315C4.30902 1.42913 4.48331 1.40992 4.66683 1.39457V1.33341Z" fill="#7A8A98"/>
<path d="M12.6668 1.63265C12.4133 1.55222 12.1432 1.4948 11.8566 1.45315C11.6913 1.42913 11.517 1.40992 11.3335 1.39457V1.33341C11.3335 0.965228 11.632 0.666748 12.0002 0.666748C12.3684 0.666748 12.6668 0.965228 12.6668 1.33341V1.63265Z" fill="#7A8A98"/>
<path fill-rule="evenodd" clip-rule="evenodd" d="M8.68587 1.33325H7.31413C6.01529 1.33323 4.96761 1.33321 4.14355 1.45299C3.28357 1.57799 2.5712 1.84513 2.01201 2.44965C1.45966 3.04679 1.22186 3.79507 1.10944 4.69903C0.99998 5.57921 0.999987 6.70265 1 8.11585V8.55065C0.999987 9.96385 0.99998 11.0873 1.10944 11.9675C1.22186 12.8715 1.45966 13.6197 2.01201 14.2169C2.5712 14.8214 3.28357 15.0885 4.14355 15.2135C4.96761 15.3333 6.01529 15.3333 7.31413 15.3333H8.68587C9.98473 15.3333 11.0324 15.3333 11.8565 15.2135C12.7165 15.0885 13.4288 14.8214 13.988 14.2169C14.5403 13.6197 14.7781 12.8715 14.8905 11.9675C15 11.0873 15 9.96385 15 8.55065V8.11585C15 6.70265 15 5.57922 14.8905 4.69903C14.7781 3.79507 14.5403 3.04679 13.988 2.44965C13.4288 1.84513 12.7165 1.57799 11.8565 1.45299C11.0324 1.33321 9.98473 1.33323 8.68587 1.33325ZM2.99855 5.99992C2.69281 5.99992 2.53993 5.99992 2.44257 6.09603C2.34521 6.19214 2.34325 6.34307 2.33933 6.64493C2.33351 7.09372 2.33333 7.59605 2.33333 8.16205V8.50445C2.33333 9.97432 2.33455 11.0147 2.43258 11.8029C2.52885 12.577 2.70842 13.0062 2.99081 13.3115C3.26637 13.6094 3.64313 13.7935 4.33533 13.8941C5.05239 13.9983 6.00283 13.9999 7.36667 13.9999H8.63333C9.99713 13.9999 10.9476 13.9983 11.6647 13.8941C12.3569 13.7935 12.7336 13.6094 13.0092 13.3115C13.2916 13.0062 13.4711 12.577 13.5674 11.8029C13.6655 11.0147 13.6667 9.97432 13.6667 8.50445V8.16205C13.6667 7.59605 13.6665 7.09372 13.6607 6.64493C13.6567 6.34307 13.6548 6.19214 13.5575 6.09603C13.4601 5.99992 13.3072 5.99992 13.0015 5.99992H2.99855Z" fill="#7A8A98"/>
<path fill-rule="evenodd" clip-rule="evenodd" d="M4.5 8.66659C4.5 8.20632 4.87309 7.83325 5.33333 7.83325H5.33931C5.79955 7.83325 6.17265 8.20632 6.17265 8.66659C6.17265 9.12685 5.79955 9.49992 5.33931 9.49992H5.33333C4.87309 9.49992 4.5 9.12685 4.5 8.66659ZM7.16367 8.66659C7.16367 8.20632 7.5368 7.83325 7.997 7.83325H8.003C8.4632 7.83325 8.83633 8.20632 8.83633 8.66659C8.83633 9.12685 8.4632 9.49992 8.003 9.49992H7.997C7.5368 9.49992 7.16367 9.12685 7.16367 8.66659ZM9.82733 8.66659C9.82733 8.20632 10.2005 7.83325 10.6607 7.83325H10.6667C11.1269 7.83325 11.5 8.20632 11.5 8.66659C11.5 9.12685 11.1269 9.49992 10.6667 9.49992H10.6607C10.2005 9.49992 9.82733 9.12685 9.82733 8.66659ZM4.5 11.3333C4.5 10.873 4.87309 10.4999 5.33333 10.4999H5.33931C5.79955 10.4999 6.17265 10.873 6.17265 11.3333C6.17265 11.7935 5.79955 12.1666 5.33931 12.1666H5.33333C4.87309 12.1666 4.5 11.7935 4.5 11.3333ZM7.16367 11.3333C7.16367 10.873 7.5368 10.4999 7.997 10.4999H8.003C8.4632 10.4999 8.83633 10.873 8.83633 11.3333C8.83633 11.7935 8.4632 12.1666 8.003 12.1666H7.997C7.5368 12.1666 7.16367 11.7935 7.16367 11.3333Z" fill="#7A8A98"/>
<path d="M23.6 3.792V12H22.496V5.16L20.9 5.856L20.48 4.92L22.892 3.792H23.6Z" fill="#7A8A98"/>
<path d="M44.9974 0.833252C45.6969 0.833252 46.2479 1.36161 46.5997 2.07453L47.7744 4.44336C47.81 4.51667 47.8945 4.61991 48.0214 4.71435C48.1482 4.80869 48.2724 4.86073 48.3541 4.87445L50.4805 5.23067C51.2486 5.35974 51.8924 5.73625 52.1014 6.39185C52.3102 7.04692 52.0043 7.72765 51.4519 8.28099L51.4513 8.28159L49.7994 9.94719C49.7339 10.0132 49.6606 10.1375 49.6146 10.2995C49.5689 10.4605 49.5649 10.6071 49.5856 10.7017L49.5859 10.7031L50.0585 12.7635C50.2545 13.6211 50.1895 14.4715 49.5847 14.9161C48.9778 15.3621 48.1485 15.1644 47.395 14.7157L45.4017 13.5259C45.318 13.4759 45.1743 13.4354 45.0007 13.4354C44.8285 13.4354 44.6817 13.4754 44.5925 13.5273L44.5913 13.528L42.6019 14.7154C41.8494 15.1657 41.021 15.3599 40.4141 14.9134C39.8097 14.4687 39.7414 13.6199 39.9381 12.7631L40.4106 10.7031L40.4109 10.7017C40.4316 10.6071 40.4276 10.4605 40.3819 10.2995C40.3359 10.1375 40.2625 10.0132 40.1971 9.94719L38.5439 8.28032C37.9951 7.72699 37.6901 7.04685 37.8973 6.39275C38.1051 5.73675 38.7476 5.35979 39.5162 5.23063L41.6409 4.87471L41.6416 4.8746C41.7194 4.86109 41.8418 4.80963 41.9683 4.71504C42.0951 4.62028 42.1797 4.51682 42.2154 4.44336L42.2172 4.4397L43.3904 2.0739L43.3909 2.07297C43.746 1.36064 44.2987 0.833252 44.9974 0.833252Z" fill="#7A8A98"/>
<path d="M60.6 3.792V12H59.496V5.16L57.9 5.856L57.48 4.92L59.892 3.792H60.6Z" fill="#7A8A98"/>
<path fill-rule="evenodd" clip-rule="evenodd" d="M83.0319 2.16675C84.2579 2.16674 85.2208 2.16673 85.9798 2.25248C86.7546 2.34 87.3828 2.52249 87.9051 2.93493C88.0614 3.05841 88.2064 3.19478 88.3382 3.34261C88.7823 3.84075 88.9806 4.44454 89.0751 5.18531C89.086 5.27055 89.0914 5.31316 89.0816 5.3506C89.066 5.41043 89.0201 5.46258 88.9627 5.48565C88.9268 5.50008 88.8819 5.50008 88.792 5.50008H75.2083C75.1185 5.50008 75.0735 5.50008 75.0376 5.48565C74.9803 5.46258 74.9343 5.41043 74.9187 5.3506C74.9089 5.31317 74.9144 5.27055 74.9253 5.18531C75.0197 4.44454 75.218 3.84075 75.6622 3.34261C75.794 3.19478 75.9389 3.05841 76.0953 2.93493C76.6175 2.52249 77.2458 2.34 78.0206 2.25248C78.7796 2.16673 79.7425 2.16674 80.9685 2.16675H83.0319ZM89.1668 8.03521C89.1668 9.18462 89.1668 10.0952 89.0751 10.8149C88.9806 11.5556 88.7823 12.1594 88.3382 12.6575C88.2064 12.8053 88.0614 12.9417 87.9051 13.0652C87.3828 13.4777 86.7546 13.6601 85.9798 13.7477C85.2207 13.8334 84.2579 13.8334 83.0319 13.8334H80.9685C79.7425 13.8334 78.7796 13.8334 78.0205 13.7477C77.2458 13.6601 76.6175 13.4777 76.0952 13.0652C75.9389 12.9417 75.7939 12.8053 75.6621 12.6575C75.218 12.1594 75.0197 11.5556 74.9252 10.8149C74.8335 10.0952 74.8335 9.18455 74.8335 8.03521V7.96495C74.8335 7.58108 74.8335 7.22388 74.8369 6.89148C74.8388 6.70768 74.8397 6.61579 74.8982 6.55793C74.9566 6.50008 75.0492 6.50008 75.2344 6.50008H88.7659C88.9511 6.50008 89.0437 6.50008 89.1022 6.55793C89.1606 6.61579 89.1616 6.70768 89.1634 6.89148C89.1668 7.22381 89.1668 7.58108 89.1668 7.96488V8.03521ZM80.8335 10.6667C80.8335 10.3906 81.0574 10.1667 81.3335 10.1667H82.3335C82.6096 10.1667 82.8335 10.3906 82.8335 10.6667C82.8335 10.9429 82.6096 11.1667 82.3335 11.1667H81.3335C81.0574 11.1667 80.8335 10.9429 80.8335 10.6667ZM84.3335 10.1667C84.0574 10.1667 83.8335 10.3906 83.8335 10.6667C83.8335 10.9429 84.0574 11.1667 84.3335 11.1667H86.6668C86.943 11.1667 87.1668 10.9429 87.1668 10.6667C87.1668 10.3906 86.943 10.1667 86.6668 10.1667H84.3335Z" fill="#7A8A98"/>
<path d="M97.6 3.792V12H96.496V5.16L94.9 5.856L94.48 4.92L96.892 3.792H97.6Z" fill="#7A8A98"/>
<path fill-rule="evenodd" clip-rule="evenodd" d="M119 1.91674C117.892 1.91674 116.969 2.75073 116.877 3.83499L116.771 5.09362C116.741 5.4376 116.434 5.69322 116.084 5.66455C115.733 5.63589 115.473 5.3338 115.502 4.98981L115.609 3.73119C115.756 1.99907 117.23 0.666748 119 0.666748C120.77 0.666748 122.244 1.99907 122.391 3.73119L122.498 4.98981C122.527 5.3338 122.267 5.63589 121.916 5.66455C121.566 5.69322 121.259 5.4376 121.229 5.09362L121.123 3.83499C121.031 2.75073 120.108 1.91674 119 1.91674Z" fill="#7A8A98"/>
<path fill-rule="evenodd" clip-rule="evenodd" d="M120.721 4.66675H117.278C116.488 4.66674 115.848 4.66673 115.336 4.73105C114.803 4.79807 114.349 4.9408 113.963 5.26856C113.577 5.59576 113.359 6.02127 113.201 6.53861C113.049 7.03641 112.937 7.67361 112.798 8.46241L112.542 9.91468C112.348 11.0106 112.194 11.8859 112.17 12.5784C112.145 13.2923 112.253 13.9046 112.671 14.4103C113.09 14.9173 113.67 15.1344 114.371 15.2356C115.05 15.3334 115.929 15.3334 117.027 15.3334H120.972C122.071 15.3334 122.95 15.3334 123.628 15.2356C124.33 15.1344 124.909 14.9173 125.328 14.4103C125.746 13.9046 125.855 13.2923 125.83 12.5784C125.806 11.8859 125.651 11.0107 125.458 9.91468L125.202 8.46241C125.063 7.67361 124.951 7.03641 124.798 6.53861C124.64 6.02127 124.423 5.59576 124.037 5.26856C123.651 4.9408 123.197 4.79807 122.664 4.73105C122.152 4.66673 121.512 4.66674 120.721 4.66675ZM120.336 7.10568C120.286 7.65235 119.754 8.16675 119 8.16675C118.245 8.16675 117.714 7.65235 117.664 7.10568C117.63 6.73901 117.305 6.46915 116.939 6.50289C116.572 6.53662 116.302 6.86122 116.336 7.22782C116.459 8.56528 117.667 9.50008 119 9.50008C120.333 9.50008 121.541 8.56528 121.664 7.22782C121.697 6.86122 121.428 6.53662 121.061 6.50289C120.694 6.46915 120.37 6.73901 120.336 7.10568Z" fill="#7A8A98"/>
<path d="M134.6 3.792V12H133.496V5.16L131.9 5.856L131.48 4.92L133.892 3.792H134.6Z" fill="#7A8A98"/>
</svg>
