<svg width="40" height="40" viewBox="0 0 40 40" fill="none" xmlns="http://www.w3.org/2000/svg">
<path fill-rule="evenodd" clip-rule="evenodd" d="M2.0835 9.99998C2.0835 9.07951 2.8297 8.33331 3.75016 8.33331H8.75016C9.67065 8.33331 10.4168 9.07951 10.4168 9.99998C10.4168 10.9205 9.67063 11.6666 8.75016 11.6666H3.75016C2.8297 11.6666 2.0835 10.9204 2.0835 9.99998ZM2.0835 20C2.0835 19.0795 2.8297 18.3333 3.75016 18.3333H8.75016C9.67063 18.3333 10.4168 19.0795 10.4168 20C10.4168 20.9205 9.67063 21.6666 8.75016 21.6666H3.75016C2.8297 21.6666 2.0835 20.9205 2.0835 20ZM2.0835 30C2.0835 29.0795 2.8297 28.3333 3.75016 28.3333H8.75016C9.67063 28.3333 10.4168 29.0795 10.4168 30C10.4168 30.9205 9.67063 31.6666 8.75016 31.6666H3.75016C2.8297 31.6666 2.0835 30.9205 2.0835 30Z" fill="url(#paint0_linear_204_1140)"/>
<path fill-rule="evenodd" clip-rule="evenodd" d="M16.3948 37.7565C16.25 37.6103 16.25 37.3783 16.25 36.9145V3.08546C16.25 2.6216 16.25 2.38965 16.3948 2.24348C16.5397 2.09733 16.77 2.0952 17.2308 2.09096C18.063 2.0833 18.9537 2.08331 19.9057 2.08331H23.4273C26.4903 2.0833 28.9163 2.08326 30.815 2.33855C32.769 2.60125 34.3507 3.15478 35.598 4.40206C36.8452 5.64933 37.3987 7.23091 37.6615 9.18495C37.9167 11.0836 37.9167 13.5097 37.9167 16.5726V23.4275C37.9167 26.4903 37.9167 28.9163 37.6615 30.815C37.3987 32.769 36.8452 34.3506 35.598 35.598C34.3507 36.8451 32.769 37.3986 30.815 37.6615C28.9163 37.9166 26.4903 37.9166 23.4273 37.9166H19.9058C18.9543 37.9166 18.0628 37.9166 17.2308 37.909C16.77 37.9048 16.5397 37.9026 16.3948 37.7565ZM23.75 9.99998C22.8295 9.99998 22.0833 10.7462 22.0833 11.6666C22.0833 12.5871 22.8295 13.3333 23.75 13.3333H30.4167C31.3372 13.3333 32.0833 12.5871 32.0833 11.6666C32.0833 10.7462 31.3372 9.99998 30.4167 9.99998H23.75ZM23.75 16.6666C22.8295 16.6666 22.0833 17.4128 22.0833 18.3333C22.0833 19.2538 22.8295 20 23.75 20H27.0833C28.0038 20 28.75 19.2538 28.75 18.3333C28.75 17.4128 28.0038 16.6666 27.0833 16.6666H23.75Z" fill="url(#paint1_linear_204_1140)"/>
<path d="M13.7498 3.28925C13.7498 2.7783 13.7498 2.52282 13.5807 2.37354C13.4116 2.22425 13.1664 2.25495 12.676 2.31637C12.623 2.323 12.5704 2.32984 12.5181 2.33685C10.5641 2.59957 8.98252 3.1531 7.73524 4.40037C6.48797 5.64765 5.93444 7.22922 5.67174 9.18327C5.41645 11.082 5.41649 13.508 5.4165 16.5709V23.4257C5.41649 26.4885 5.41645 28.9147 5.67174 30.8133C5.93444 32.7673 6.48797 34.349 7.73524 35.5962C8.98252 36.8435 10.5641 37.397 12.5181 37.6597C12.5704 37.6668 12.623 37.6737 12.676 37.6802C13.1664 37.7417 13.4116 37.7723 13.5807 37.623C13.7498 37.4738 13.7498 37.2183 13.7498 36.7073V3.28925Z" fill="url(#paint2_linear_204_1140)"/>
<defs>
<linearGradient id="paint0_linear_204_1140" x1="10.4168" y1="8.33331" x2="-4.36447" y2="13.6123" gradientUnits="userSpaceOnUse">
<stop stop-color="#E43E2B"/>
<stop offset="1" stop-color="#7E2218"/>
</linearGradient>
<linearGradient id="paint1_linear_204_1140" x1="37.9167" y1="2.08331" x2="6.18466" y2="21.2701" gradientUnits="userSpaceOnUse">
<stop stop-color="#E43E2B"/>
<stop offset="1" stop-color="#7E2218"/>
</linearGradient>
<linearGradient id="paint2_linear_204_1140" x1="13.7498" y1="2.26562" x2="-2.04479" y2="5.97691" gradientUnits="userSpaceOnUse">
<stop stop-color="#E43E2B"/>
<stop offset="1" stop-color="#7E2218"/>
</linearGradient>
</defs>
</svg>
