<svg width="25" height="16" viewBox="0 0 25 16" fill="none" xmlns="http://www.w3.org/2000/svg">
<path fill-rule="evenodd" clip-rule="evenodd" d="M9.03189 2.16675C10.2579 2.16674 11.2208 2.16673 11.9798 2.25248C12.7546 2.34 13.3828 2.52249 13.9051 2.93493C14.0614 3.05841 14.2064 3.19478 14.3382 3.34261C14.7823 3.84075 14.9806 4.44454 15.0751 5.18531C15.086 5.27055 15.0914 5.31316 15.0816 5.3506C15.066 5.41043 15.0201 5.46258 14.9627 5.48565C14.9268 5.50008 14.8819 5.50008 14.792 5.50008H1.20832C1.11847 5.50008 1.07354 5.50008 1.03764 5.48565C0.980263 5.46258 0.93435 5.41043 0.918723 5.3506C0.90895 5.31317 0.914383 5.27055 0.925256 5.18531C1.01972 4.44454 1.21804 3.84075 1.66216 3.34261C1.79396 3.19478 1.93891 3.05841 2.09526 2.93493C2.61751 2.52249 3.24578 2.34 4.02056 2.25248C4.77962 2.16673 5.74248 2.16674 6.96849 2.16675H9.03189ZM15.1668 8.03521C15.1668 9.18462 15.1668 10.0952 15.0751 10.8149C14.9806 11.5556 14.7823 12.1594 14.3382 12.6575C14.2064 12.8053 14.0614 12.9417 13.9051 13.0652C13.3828 13.4777 12.7546 13.6601 11.9798 13.7477C11.2207 13.8334 10.2579 13.8334 9.03189 13.8334H6.96849C5.74246 13.8334 4.77961 13.8334 4.02055 13.7477C3.24578 13.6601 2.6175 13.4777 2.09525 13.0652C1.9389 12.9417 1.79395 12.8053 1.66215 12.6575C1.21804 12.1594 1.01971 11.5556 0.92525 10.8149C0.833483 10.0952 0.83349 9.18455 0.833496 8.03521V7.96495C0.833496 7.58108 0.83349 7.22388 0.83691 6.89148C0.838796 6.70768 0.839743 6.61579 0.898189 6.55793C0.956643 6.50008 1.04924 6.50008 1.23442 6.50008H14.7659C14.9511 6.50008 15.0437 6.50008 15.1022 6.55793C15.1606 6.61579 15.1616 6.70768 15.1634 6.89148C15.1668 7.22381 15.1668 7.58108 15.1668 7.96488V8.03521ZM6.83349 10.6667C6.83349 10.3906 7.05736 10.1667 7.33349 10.1667H8.33349C8.60962 10.1667 8.83349 10.3906 8.83349 10.6667C8.83349 10.9429 8.60962 11.1667 8.33349 11.1667H7.33349C7.05736 11.1667 6.83349 10.9429 6.83349 10.6667ZM10.3335 10.1667C10.0574 10.1667 9.83349 10.3906 9.83349 10.6667C9.83349 10.9429 10.0574 11.1667 10.3335 11.1667H12.6668C12.943 11.1667 13.1668 10.9429 13.1668 10.6667C13.1668 10.3906 12.943 10.1667 12.6668 10.1667H10.3335Z" fill="#7A8A98"/>
<path d="M23.6 3.792V12H22.496V5.16L20.9 5.856L20.48 4.92L22.892 3.792H23.6Z" fill="#7A8A98"/>
</svg>
