<svg width="40" height="40" viewBox="0 0 40 40" fill="none" xmlns="http://www.w3.org/2000/svg">
<path fill-rule="evenodd" clip-rule="evenodd" d="M3.75 10.8337V28.6025C3.75 30.4698 5.11223 31.7118 6.78888 32.7178C8.4862 33.7363 11.335 34.9398 14.4902 36.2727C16.8553 37.2725 18.38 37.917 20 37.917C21.62 37.917 23.1447 37.2725 25.5097 36.2727C28.6647 34.9398 31.5138 33.7363 33.2112 32.7178C34.8878 31.7118 36.25 30.4698 36.25 28.6025V10.8337C36.25 10.5165 36.1318 10.2269 35.9372 10.0065L30.4477 12.6716L25.579 15.0275C22.466 16.5339 21.2627 17.0837 20 17.0837C18.7373 17.0837 17.534 16.5339 14.421 15.0275L9.55233 12.6716L4.06292 10.0065C3.86818 10.2269 3.75 10.5165 3.75 10.8337ZM10.5593 18.8822C9.94182 18.5735 9.19098 18.8237 8.88223 19.4412C8.5735 20.0587 8.82378 20.8095 9.44125 21.1182L12.7746 22.7848C13.3921 23.0937 14.1429 22.8433 14.4516 22.2258C14.7604 21.6085 14.5101 20.8575 13.8926 20.5488L10.5593 18.8822Z" fill="url(#paint0_linear_204_975)"/>
<path fill-rule="evenodd" clip-rule="evenodd" d="M20 2.08415C18.0458 2.08415 16.2592 2.93165 13.6515 4.16859L8.46463 6.6259C7.2567 7.19802 6.19167 7.70245 5.44235 8.19797C4.69212 8.69409 3.75 9.50782 3.75 10.8342C3.75 12.1605 4.69212 12.9742 5.44235 13.4703C6.19165 13.9658 7.25668 14.4703 8.4646 15.0424L13.6515 17.4997C16.2592 18.7367 18.0458 19.5842 20 19.5842C21.9542 19.5842 23.7408 18.7367 26.3485 17.4997L31.5353 15.0424C32.7433 14.4703 33.8083 13.9659 34.5577 13.4703C35.3078 12.9742 36.25 12.1605 36.25 10.8342C36.25 9.50782 35.3078 8.69409 34.5577 8.19797C33.8083 7.70245 32.7433 7.198 31.5353 6.62589L26.3485 4.16859C23.7408 2.93165 21.9542 2.08415 20 2.08415ZM14.7375 7.19079C17.808 5.73622 18.884 5.26774 20.0002 5.26774C21.0218 5.26774 22.0098 5.66029 24.5248 6.84237L11.7811 13.0805L9.9906 12.2323C8.63943 11.5922 7.79295 11.1866 7.26237 10.8359C7.79295 10.4852 8.63943 10.0797 9.9906 9.4396L14.7375 7.19079ZM15.4755 14.8295L28.2192 8.59134L30.0097 9.43959C31.3608 10.0797 32.2073 10.4852 32.7378 10.8359C32.2073 11.1866 31.3608 11.5922 30.0097 12.2323L25.2627 14.4811C22.1923 15.9356 21.1163 16.4041 20.0002 16.4041C18.9783 16.4041 17.9903 16.0116 15.4755 14.8295Z" fill="url(#paint1_linear_204_975)"/>
<defs>
<linearGradient id="paint0_linear_204_975" x1="36.25" y1="10.0065" x2="8.65978" y2="42.1335" gradientUnits="userSpaceOnUse">
<stop stop-color="#3B7DED"/>
<stop offset="1" stop-color="#224787"/>
</linearGradient>
<linearGradient id="paint1_linear_204_975" x1="36.25" y1="2.08415" x2="21.6399" y2="29.2172" gradientUnits="userSpaceOnUse">
<stop stop-color="#3B7DED"/>
<stop offset="1" stop-color="#224787"/>
</linearGradient>
</defs>
</svg>
