<svg width="40" height="40" viewBox="0 0 40 40" fill="none" xmlns="http://www.w3.org/2000/svg">
<path fill-rule="evenodd" clip-rule="evenodd" d="M28.8532 3.21767C26.6142 2.91665 23.7463 2.91667 20.0952 2.91669H19.9045C16.2534 2.91667 13.3856 2.91665 11.1465 3.21767C8.85212 3.52615 7.03169 4.1712 5.60135 5.60154C4.17102 7.03187 3.52597 8.8523 3.21749 11.1467C2.91647 13.3858 2.91649 16.2536 2.9165 19.9047V20.0954C2.91649 23.7465 2.91647 26.6144 3.21749 28.8534C3.52597 31.1477 4.17102 32.9682 5.60135 34.3985C7.03169 35.8289 8.85212 36.4739 11.1465 36.7824C13.3856 37.0834 16.2533 37.0834 19.9045 37.0834H20.0952C23.7463 37.0834 26.6142 37.0834 28.8532 36.7824C31.1475 36.4739 32.968 35.8289 34.3983 34.3985C35.8287 32.9682 36.4737 31.1477 36.7822 28.8534C37.0832 26.6144 37.0832 23.7465 37.0832 20.0954V19.9047C37.0832 16.2535 37.0832 13.3858 36.7822 11.1467C36.4737 8.8523 35.8287 7.03187 34.3983 5.60154C32.968 4.1712 31.1475 3.52615 28.8532 3.21767ZM12.9165 21.6667C12.9165 20.9764 12.3569 20.4167 11.6665 20.4167C10.9762 20.4167 10.4165 20.9764 10.4165 21.6667V28.3334C10.4165 29.0237 10.9762 29.5834 11.6665 29.5834C12.3569 29.5834 12.9165 29.0237 12.9165 28.3334V21.6667ZM19.9998 10.4167C20.6902 10.4167 21.2498 10.9763 21.2498 11.6667V28.3334C21.2498 29.0237 20.6902 29.5834 19.9998 29.5834C19.3095 29.5834 18.7498 29.0237 18.7498 28.3334V11.6667C18.7498 10.9763 19.3095 10.4167 19.9998 10.4167ZM29.5832 18.3334C29.5832 17.643 29.0235 17.0834 28.3332 17.0834C27.6428 17.0834 27.0832 17.643 27.0832 18.3334V28.3334C27.0832 29.0237 27.6428 29.5834 28.3332 29.5834C29.0235 29.5834 29.5832 29.0237 29.5832 28.3334V18.3334Z" fill="url(#paint0_linear_204_1155)"/>
<defs>
<linearGradient id="paint0_linear_204_1155" x1="37.0832" y1="2.91669" x2="2.91651" y2="37.0834" gradientUnits="userSpaceOnUse">
<stop stop-color="#3B7DED"/>
<stop offset="1" stop-color="#224787"/>
</linearGradient>
</defs>
</svg>
