<svg width="40" height="40" viewBox="0 0 40 40" fill="none" xmlns="http://www.w3.org/2000/svg">
<path fill-rule="evenodd" clip-rule="evenodd" d="M7.25965 12.5481C7.20728 12.5802 6.92957 12.7955 6.60265 13.0523C6.63273 13.0738 6.6652 13.0963 6.70023 13.1199C7.27537 13.5072 8.17722 13.9459 9.55103 14.6087L14.4197 16.9577C17.5325 18.4595 18.7363 19.0082 20 19.0082C21.2637 19.0082 22.4677 18.4595 25.5803 16.9578L30.449 14.6087C31.8228 13.9459 32.7247 13.5072 33.2998 13.1199C33.3348 13.0963 33.3673 13.0738 33.3973 13.0523C33.0705 12.7955 32.7927 12.5802 32.7403 12.5481C32.2098 12.2221 31.363 11.8453 30.0112 11.2503L27.4913 10.1413C26.683 9.78563 26.3438 8.89954 26.7338 8.16223C27.1238 7.42493 28.0953 7.11559 28.9037 7.47133L31.5337 8.62878C32.7417 9.16029 33.8065 9.62889 34.5558 10.0892C35.3048 10.5493 36.25 11.3064 36.25 12.5429C36.25 12.5836 36.2482 12.624 36.2447 12.6639C36.2482 12.7021 36.25 12.7409 36.25 12.7801V28.8353C36.25 30.701 34.8852 31.94 33.2097 32.9425C31.5125 33.958 28.6643 35.1577 25.5092 36.4865C23.1435 37.4838 21.6193 38.1262 20 38.1262C18.3807 38.1262 16.8565 37.4838 14.4909 36.4865C11.3356 35.1577 8.4875 33.958 6.79027 32.9425C5.1148 31.94 3.75 30.701 3.75 28.8353V12.7801C3.75 12.7409 3.7518 12.7021 3.75533 12.6639C3.7518 12.624 3.75 12.5836 3.75 12.5429C3.75 11.3064 4.69513 10.5493 5.44417 10.0892C6.19343 9.62889 7.25838 9.16031 8.46635 8.62881L11.1689 7.43944C11.9772 7.08371 12.9486 7.39303 13.3385 8.13034C13.7285 8.86764 13.3894 9.75373 12.5811 10.1095L9.9888 11.2503C8.63702 11.8453 7.79025 12.2221 7.25965 12.5481ZM10.5517 21.0075C9.93217 20.703 9.18303 20.9583 8.87848 21.578C8.57393 22.1975 8.8293 22.9467 9.44885 23.2512L12.7822 24.8897C13.4017 25.1943 14.1508 24.9388 14.4554 24.3193C14.7599 23.6998 14.5046 22.9507 13.885 22.6462L10.5517 21.0075Z" fill="url(#paint0_linear_204_999)"/>
<path d="M24.601 5.79297C25.1987 6.49308 25.1155 7.54508 24.4153 8.14267C24.1043 8.4082 23.7238 8.53933 23.3445 8.54167H21.6667V15.2083C21.6667 16.1288 20.9205 16.875 20 16.875C19.0795 16.875 18.3333 16.1288 18.3333 15.2083V8.54167H16.6556C16.2763 8.53933 15.8958 8.4082 15.5847 8.14267C14.8846 7.54508 14.8014 6.49308 15.399 5.79297L17.0657 3.84035L17.1202 3.77642C17.4647 3.37257 17.8242 2.95122 18.1675 2.64425C18.5528 2.29982 19.158 1.875 20 1.875C20.842 1.875 21.4472 2.29982 21.8325 2.64425C22.176 2.95122 22.5353 3.37255 22.8798 3.77642L22.9343 3.84035L24.601 5.79297Z" fill="url(#paint1_linear_204_999)"/>
<defs>
<linearGradient id="paint0_linear_204_999" x1="36.25" y1="7.29184" x2="5.45831" y2="39.7469" gradientUnits="userSpaceOnUse">
<stop stop-color="#F0B501"/>
<stop offset="1" stop-color="#8A6801"/>
</linearGradient>
<linearGradient id="paint1_linear_204_999" x1="25.0001" y1="1.875" x2="11.1539" y2="11.1059" gradientUnits="userSpaceOnUse">
<stop stop-color="#F0B501"/>
<stop offset="1" stop-color="#8A6801"/>
</linearGradient>
</defs>
</svg>
