<svg width="40" height="40" viewBox="0 0 40 40" fill="none" xmlns="http://www.w3.org/2000/svg">
<path fill-rule="evenodd" clip-rule="evenodd" d="M16.2496 37.4115C16.7068 37.7406 17.1968 37.8635 17.6628 37.9166H22.3372C22.8032 37.8635 23.2932 37.7406 23.7505 37.4115C24.2075 37.0825 24.4788 36.6576 24.6763 36.2336C24.8537 35.8528 25.7475 33.1853 25.7475 33.1853C25.7475 33.1853 26.184 32.4463 26.5427 32.211C27.2468 31.7491 27.9573 31.649 28.4202 31.7491C28.4202 31.7491 31.556 32.632 31.9988 32.7021C32.4913 32.7801 33.0302 32.79 33.5873 32.5641C34.1443 32.3385 34.5233 31.9565 34.8217 31.5583L37.2193 27.421C37.407 26.989 37.5453 26.5013 37.4862 25.9388C37.4268 25.3763 37.1897 24.928 36.916 24.5443C36.6702 24.1998 34.5987 21.8938 34.2402 21.4966C34.2402 21.4966 33.8068 20.8321 33.8068 19.9996C33.8068 19.0251 34.2402 18.5031 34.2402 18.5031C34.2402 18.5031 36.6702 15.7999 36.916 15.4555C37.1897 15.0718 37.4268 14.6235 37.4862 14.061C37.5453 13.4985 37.407 13.0108 37.2193 12.5789C37.0507 12.1909 34.8217 8.44143 34.8217 8.44143C34.5233 8.04323 34.1443 7.6614 33.5873 7.43561C33.0302 7.20975 32.4913 7.2197 31.9988 7.29765C31.556 7.36771 28.97 8.09495 28.4202 8.25056C28.4202 8.25056 27.5378 8.44143 26.5427 7.7888C26.184 7.55361 25.9062 7.21353 25.7473 6.81451C25.7473 6.81451 24.8537 4.14713 24.6763 3.76633C24.4788 3.34236 24.2075 2.91743 23.7505 2.58845C23.2932 2.25931 22.8032 2.13645 22.3372 2.08331H17.6628C17.1968 2.13645 16.7068 2.25931 16.2496 2.58845C15.7925 2.91743 15.5212 3.34236 15.3237 3.76633C15.1463 4.14713 14.2526 6.81451 14.2526 6.81451C14.0938 7.21353 13.8159 7.55361 13.4573 7.7888C12.4621 8.44143 11.5799 8.25056 11.5799 8.25056C11.0299 8.09495 8.44401 7.36771 8.00115 7.29765C7.50863 7.2197 6.96981 7.20975 6.41265 7.43561C5.8557 7.6614 5.4767 8.04323 5.17831 8.44143C5.17831 8.44143 2.94928 12.1909 2.78071 12.5789C2.59305 13.0108 2.4546 13.4985 2.51388 14.061C2.57316 14.6235 2.81031 15.0718 3.08405 15.4555C3.32985 15.7999 5.75976 18.5031 5.75976 18.5031C5.75976 18.5031 6.19318 19.0251 6.19318 19.9996C6.19318 20.8321 5.75979 21.4966 5.75979 21.4966C5.40138 21.8938 3.32985 24.1998 3.08406 24.5443C2.81031 24.928 2.57316 25.3763 2.51388 25.9388C2.4546 26.5013 2.59305 26.989 2.78073 27.421L5.17828 31.5583C5.47668 31.9565 5.85568 32.3385 6.41268 32.5641C6.96985 32.79 7.50865 32.7801 8.00118 32.7021C8.44405 32.632 11.5798 31.7491 11.5798 31.7491C12.0427 31.649 12.7532 31.7491 13.4574 32.211C13.8159 32.4463 14.2525 33.1853 14.2525 33.1853C14.2525 33.1853 15.1463 35.8528 15.3237 36.2336C15.5212 36.6576 15.7925 37.0825 16.2496 37.4115ZM20.0325 25.8333C23.2542 25.8333 25.8658 23.2216 25.8658 20C25.8658 16.7783 23.2542 14.1666 20.0325 14.1666C16.8108 14.1666 14.1992 16.7783 14.1992 20C14.1992 23.2216 16.8108 25.8333 20.0325 25.8333Z" fill="#7A8A98"/>
</svg>
